<svg xmlns="http://www.w3.org/2000/svg" xmlns:xlink="http://www.w3.org/1999/xlink" viewBox="0 0 1414.12 724.211">
  <defs>
    <style>
      .cls-1 {
        fill: #9693f5;
      }

      .cls-2 {
        filter: url(#Path_1035);
      }
    </style>
    <filter id="Path_1035" x="14.928" y="0" width="1399.192" height="724.211" filterUnits="userSpaceOnUse">
      <feOffset dy="3" input="SourceAlpha"/>
      <feGaussianBlur stdDeviation="7.5" result="blur"/>
      <feFlood flood-opacity="0.161"/>
      <feComposite operator="in" in2="blur"/>
      <feComposite in="SourceGraphic"/>
    </filter>
  </defs>
  <g id="bg-contact-1" transform="translate(-138.2 -151.2)">
    <g class="cls-2" transform="matrix(1, 0, 0, 1, 138.2, 151.2)">
      <path id="Path_1035-2" data-name="Path 1035" class="cls-1" d="M261.387,214.2V661.67h-63.82A18.681,18.681,0,0,0,178.9,680.338h0a18.681,18.681,0,0,0,18.668,18.668H299.275a18.681,18.681,0,0,1,18.668,18.668h0a18.681,18.681,0,0,1-18.668,18.668H219.73c-10.116,0-18.76,7.909-19.128,18.024a18.679,18.679,0,0,0,18.668,19.4h42.117v32.646a43.524,43.524,0,0,0,43.5,43.5H1489.6a43.524,43.524,0,0,0,43.5-43.5V214.2a43.524,43.524,0,0,0-43.5-43.5H304.884A43.583,43.583,0,0,0,261.387,214.2Z" transform="translate(-141.47 -151.2)"/>
    </g>
    <path id="Path_1036" data-name="Path 1036" class="cls-1" d="M156.868,785.9h0a18.681,18.681,0,0,1,18.668,18.668h0a18.681,18.681,0,0,1-18.668,18.668h0A18.681,18.681,0,0,1,138.2,804.568h0A18.681,18.681,0,0,1,156.868,785.9Z" transform="translate(0 -49.467)"/>
  </g>
</svg>
