<svg xmlns="http://www.w3.org/2000/svg" viewBox="0 0 25.842 20.304">
  <defs>
    <style>
      .cls-1 {
        fill: #fff;
      }
    </style>
  </defs>
  <g id="Group_119" data-name="Group 119" transform="translate(0 0)">
    <path id="Path_1041" data-name="Path 1041" class="cls-1" d="M2.48,61.078q.49.346,2.956,2.055t3.778,2.631q.144.1.613.44t.779.548q.31.209.75.469a4.351,4.351,0,0,0,.829.389,2.285,2.285,0,0,0,.721.13h.029a2.287,2.287,0,0,0,.721-.13,4.355,4.355,0,0,0,.829-.389q.44-.26.75-.469t.779-.548q.469-.339.613-.44,1.326-.923,6.749-4.687A6.85,6.85,0,0,0,25.135,59.3a3.808,3.808,0,0,0,.707-2.177,2.327,2.327,0,0,0-2.307-2.307H2.307A2.059,2.059,0,0,0,.6,55.57,2.911,2.911,0,0,0,0,57.444a3.368,3.368,0,0,0,.793,1.969A7.158,7.158,0,0,0,2.48,61.078Z" transform="translate(0 -54.82)"/>
    <path id="Path_1042" data-name="Path 1042" class="cls-1" d="M24.4,185.692q-4.729,3.2-7.181,4.975-.822.605-1.334.944a8.232,8.232,0,0,1-1.363.692,4.15,4.15,0,0,1-1.586.353h-.029a4.151,4.151,0,0,1-1.586-.353,8.237,8.237,0,0,1-1.363-.692q-.512-.339-1.334-.944-1.947-1.428-7.167-4.975A7.639,7.639,0,0,1,0,184.437v11.45a2.221,2.221,0,0,0,.678,1.63,2.221,2.221,0,0,0,1.63.678H23.534a2.314,2.314,0,0,0,2.307-2.308v-11.45A7.951,7.951,0,0,1,24.4,185.692Z" transform="translate(0 -177.89)"/>
  </g>
</svg>
