<svg xmlns="http://www.w3.org/2000/svg" viewBox="0 0 170.824 170.907">
  <defs>
    <style>
      .cls-1 {
        fill: #e4f8f6;
      }

      .cls-2 {
        fill: #00c5dc;
      }
    </style>
  </defs>
  <g id="Group_307" data-name="Group 307" transform="translate(-1129.018 -1261.093)">
    <path id="Path_1365" data-name="Path 1365" class="cls-1" d="M73,0A73,73,0,1,1,0,73,73,73,0,0,1,73,0Z" transform="translate(1148 1269)"/>
    <g id="execution" transform="translate(1128.903 1261.094)">
      <g id="Group_248" data-name="Group 248" transform="translate(0.115 0)">
        <g id="Group_247" data-name="Group 247" transform="translate(0)">
          <path id="Path_1343" data-name="Path 1343" class="cls-2" d="M72.169,30.615l-4.98-2.2c-.226-.836-.471-1.628-.744-2.391l2.768-4.766a2.857,2.857,0,0,0,.022-2.823,37.886,37.886,0,0,0-4.855-6.786,2.834,2.834,0,0,0-2.765-.878l-5.239,1.2q-.916-.731-1.912-1.41l-.507-5.546a2.854,2.854,0,0,0-1.644-2.327A36.232,36.232,0,0,0,44.5.064a2.839,2.839,0,0,0-2.748.931L38.091,5.24H35.9L32.238.995A2.835,2.835,0,0,0,29.49.064a36.271,36.271,0,0,0-7.817,2.625,2.854,2.854,0,0,0-1.644,2.33l-.507,5.543c-.661.452-1.3.923-1.912,1.41l-5.24-1.2a2.831,2.831,0,0,0-2.765.878A37.825,37.825,0,0,0,4.75,18.438a2.857,2.857,0,0,0,.022,2.823L7.54,26.027c-.273.764-.518,1.555-.744,2.391l-4.981,2.2a2.854,2.854,0,0,0-1.7,2.611v7.753a2.853,2.853,0,0,0,1.7,2.611l4.98,2.2c.226.836.471,1.628.744,2.391L4.772,52.943a2.857,2.857,0,0,0-.022,2.823A37.886,37.886,0,0,0,9.6,62.553a2.842,2.842,0,0,0,2.765.878l5.239-1.2q.916.731,1.912,1.41l.507,5.546a2.854,2.854,0,0,0,1.644,2.327,36.231,36.231,0,0,0,7.817,2.625,2.845,2.845,0,0,0,2.748-.931l3.656-4.244h2.2l3.656,4.244a2.849,2.849,0,0,0,2.163.992,2.786,2.786,0,0,0,.585-.061,36.271,36.271,0,0,0,7.817-2.625,2.854,2.854,0,0,0,1.644-2.33l.507-5.543c.661-.452,1.3-.923,1.912-1.41l5.24,1.2a2.838,2.838,0,0,0,2.765-.878,37.825,37.825,0,0,0,4.855-6.786,2.857,2.857,0,0,0-.022-2.823l-2.768-4.766c.273-.764.518-1.555.744-2.391l4.98-2.2a2.854,2.854,0,0,0,1.7-2.611V33.226A2.851,2.851,0,0,0,72.169,30.615ZM68.162,39.12,63.606,41.13A2.858,2.858,0,0,0,61.978,43.1a26.229,26.229,0,0,1-1.321,4.233,2.857,2.857,0,0,0,.167,2.525l2.611,4.5A32.36,32.36,0,0,1,61.2,57.48L56.27,56.352a2.829,2.829,0,0,0-2.528.641,26.042,26.042,0,0,1-3.5,2.589A2.851,2.851,0,0,0,48.9,61.747l-.479,5.237a31.567,31.567,0,0,1-3.489,1.184L41.56,64.25a2.856,2.856,0,0,0-2.163-.992H34.587a2.857,2.857,0,0,0-2.163.992l-3.375,3.918a31.612,31.612,0,0,1-3.492-1.184l-.479-5.242a2.857,2.857,0,0,0-1.338-2.162,25.724,25.724,0,0,1-3.5-2.586,2.831,2.831,0,0,0-2.528-.641l-4.933,1.129a32.421,32.421,0,0,1-2.232-3.119l2.611-4.5a2.858,2.858,0,0,0,.167-2.525A26.23,26.23,0,0,1,12.007,43.1a2.857,2.857,0,0,0-1.628-1.973L5.822,39.12V35.085l4.557-2.009A2.858,2.858,0,0,0,12.007,31.1a26.23,26.23,0,0,1,1.321-4.233,2.857,2.857,0,0,0-.167-2.525l-2.611-4.5a32.356,32.356,0,0,1,2.232-3.119l4.933,1.129a2.84,2.84,0,0,0,2.528-.641,26.042,26.042,0,0,1,3.5-2.589,2.851,2.851,0,0,0,1.338-2.165l.479-5.237a31.566,31.566,0,0,1,3.489-1.184l3.375,3.918a2.856,2.856,0,0,0,2.163.992H39.4a2.858,2.858,0,0,0,2.163-.992l3.375-3.918a31.612,31.612,0,0,1,3.492,1.184l.479,5.242a2.857,2.857,0,0,0,1.338,2.162,25.724,25.724,0,0,1,3.5,2.586,2.838,2.838,0,0,0,2.528.641L61.2,16.724a32.358,32.358,0,0,1,2.232,3.119l-2.611,4.5a2.858,2.858,0,0,0-.167,2.525A26.23,26.23,0,0,1,61.977,31.1a2.857,2.857,0,0,0,1.628,1.973l4.557,2.009V39.12Z" transform="translate(-0.115 -0.001)"/>
        </g>
      </g>
      <g id="Group_250" data-name="Group 250" transform="translate(17.015 17.124)">
        <g id="Group_249" data-name="Group 249">
          <path id="Path_1344" data-name="Path 1344" class="cls-2" d="M67.468,48.005A19.977,19.977,0,1,0,87.445,67.982,19.977,19.977,0,0,0,67.468,48.005Zm0,34.246A14.269,14.269,0,1,1,81.737,67.982,14.269,14.269,0,0,1,67.468,82.251Z" transform="translate(-47.491 -48.005)"/>
        </g>
      </g>
      <g id="Group_252" data-name="Group 252" transform="translate(108.522 -0.001)">
        <g id="Group_251" data-name="Group 251">
          <path id="Path_1345" data-name="Path 1345" class="cls-2" d="M364.721,25.552l-3.941-1.739c-.153-.552-.32-1.081-.5-1.6l2.2-3.785a2.862,2.862,0,0,0,.022-2.826,32.256,32.256,0,0,0-4.108-5.738,2.834,2.834,0,0,0-2.762-.878l-4.147.947q-.611-.477-1.254-.925l-.4-4.4a2.849,2.849,0,0,0-1.644-2.33A30.9,30.9,0,0,0,341.564.062a2.835,2.835,0,0,0-2.748.931l-2.9,3.372h-1.393l-2.9-3.372a2.831,2.831,0,0,0-2.748-.931,30.884,30.884,0,0,0-6.619,2.221,2.849,2.849,0,0,0-1.644,2.33l-.4,4.4q-.644.447-1.254.925L314.8,8.989a2.84,2.84,0,0,0-2.762.878,32.042,32.042,0,0,0-4.105,5.741,2.857,2.857,0,0,0,.022,2.823l2.194,3.782q-.268.773-.5,1.6l-3.941,1.739a2.851,2.851,0,0,0-1.7,2.611v6.46a2.851,2.851,0,0,0,1.7,2.611l3.941,1.739c.153.552.32,1.081.5,1.6l-2.2,3.785a2.862,2.862,0,0,0-.022,2.826,32.237,32.237,0,0,0,4.108,5.738,2.838,2.838,0,0,0,2.765.878l4.141-.95c.407.32.828.63,1.257.928l.4,4.4a2.849,2.849,0,0,0,1.644,2.33,30.9,30.9,0,0,0,6.619,2.221,2.843,2.843,0,0,0,2.748-.931l2.9-3.372h1.393l2.9,3.372a2.849,2.849,0,0,0,2.163.992,2.786,2.786,0,0,0,.585-.061,30.877,30.877,0,0,0,6.619-2.221,2.849,2.849,0,0,0,1.644-2.33l.4-4.4q.644-.447,1.254-.925l4.147.947a2.839,2.839,0,0,0,2.762-.878,32.261,32.261,0,0,0,4.108-5.738,2.862,2.862,0,0,0-.022-2.826l-2.2-3.785c.178-.515.346-1.045.5-1.6l3.941-1.739a2.851,2.851,0,0,0,1.7-2.611v-6.46A2.851,2.851,0,0,0,364.721,25.552Zm-4.005,7.213-3.514,1.55a2.844,2.844,0,0,0-1.63,1.979,21.309,21.309,0,0,1-1.076,3.442,2.863,2.863,0,0,0,.167,2.528l2.032,3.5q-.69,1.07-1.488,2.085l-3.824-.875a2.824,2.824,0,0,0-2.522.641,21.125,21.125,0,0,1-2.848,2.1,2.857,2.857,0,0,0-1.343,2.168l-.371,4.075c-.766.3-1.536.563-2.3.781l-2.614-3.035a2.855,2.855,0,0,0-2.163-.992h-4.008a2.857,2.857,0,0,0-2.163.992l-2.614,3.035c-.766-.217-1.536-.479-2.3-.781l-.371-4.075a2.856,2.856,0,0,0-1.343-2.168,20.942,20.942,0,0,1-2.846-2.1,2.871,2.871,0,0,0-2.528-.644l-3.821.875c-.532-.672-1.028-1.368-1.488-2.082l2.032-3.5a2.864,2.864,0,0,0,.167-2.528,21.32,21.32,0,0,1-1.076-3.442,2.845,2.845,0,0,0-1.63-1.979l-3.514-1.55V30.023l3.514-1.55a2.844,2.844,0,0,0,1.63-1.979,21.469,21.469,0,0,1,1.076-3.447,2.857,2.857,0,0,0-.167-2.525l-2.029-3.5c.457-.711.953-1.407,1.485-2.082l3.824.875a2.838,2.838,0,0,0,2.522-.641,21.125,21.125,0,0,1,2.848-2.1,2.857,2.857,0,0,0,1.343-2.168l.371-4.075c.766-.3,1.536-.563,2.3-.781l2.614,3.035a2.856,2.856,0,0,0,2.163.992h4.008a2.856,2.856,0,0,0,2.163-.992L342,6.046c.766.217,1.536.479,2.3.781l.371,4.075a2.856,2.856,0,0,0,1.343,2.168,21.127,21.127,0,0,1,2.848,2.1,2.833,2.833,0,0,0,2.522.641l3.824-.875q.8,1.012,1.488,2.085l-2.032,3.5a2.864,2.864,0,0,0-.167,2.528,21.32,21.32,0,0,1,1.076,3.442,2.845,2.845,0,0,0,1.63,1.979l3.514,1.55Z" transform="translate(-304.007 0.001)"/>
        </g>
      </g>
      <g id="Group_254" data-name="Group 254" transform="translate(125.461 17.124)">
        <g id="Group_253" data-name="Group 253">
          <path id="Path_1346" data-name="Path 1346" class="cls-2" d="M365.76,48.005a14.269,14.269,0,1,0,14.269,14.269A14.269,14.269,0,0,0,365.76,48.005Zm0,22.831a8.562,8.562,0,1,1,8.562-8.562A8.561,8.561,0,0,1,365.76,70.836Z" transform="translate(-351.491 -48.005)"/>
        </g>
      </g>
      <g id="Group_256" data-name="Group 256" transform="translate(85.833 85.942)">
        <g id="Group_255" data-name="Group 255">
          <path id="Path_1347" data-name="Path 1347" class="cls-2" d="M323.1,275.74l-4.136-.87c-.17-.716-.362-1.433-.577-2.143l3.172-2.843a2.852,2.852,0,0,0,.722-3.244,42.883,42.883,0,0,0-5.242-8.98,2.864,2.864,0,0,0-3.172-.995l-3.988,1.31c-.507-.538-1.034-1.064-1.572-1.572l1.31-3.985a2.853,2.853,0,0,0-.992-3.169A42.71,42.71,0,0,0,299.642,244a2.868,2.868,0,0,0-3.244.722l-2.843,3.174c-.711-.217-1.427-.41-2.143-.58l-.87-4.136a2.855,2.855,0,0,0-2.793-2.266h-9.732a2.854,2.854,0,0,0-2.792,2.266l-.87,4.136c-.716.17-1.433.362-2.143.577l-2.843-3.172a2.867,2.867,0,0,0-3.244-.722,42.883,42.883,0,0,0-8.98,5.242,2.855,2.855,0,0,0-.995,3.172l1.31,3.988c-.538.507-1.065,1.034-1.572,1.572l-3.985-1.31a2.871,2.871,0,0,0-3.169.992,42.71,42.71,0,0,0-5.248,8.982,2.852,2.852,0,0,0,.722,3.244l3.174,2.843c-.217.711-.41,1.427-.58,2.143l-4.136.87a2.855,2.855,0,0,0-2.266,2.792v9.732a2.854,2.854,0,0,0,2.266,2.793l4.136.87c.17.716.362,1.433.577,2.143l-3.172,2.843a2.852,2.852,0,0,0-.722,3.244,42.883,42.883,0,0,0,5.242,8.98,2.864,2.864,0,0,0,3.172.995l3.988-1.31c.507.538,1.034,1.064,1.572,1.572l-1.31,3.985a2.853,2.853,0,0,0,.992,3.169,42.711,42.711,0,0,0,8.982,5.248,2.844,2.844,0,0,0,3.244-.722l2.843-3.174c.711.217,1.427.41,2.143.58l.87,4.136a2.855,2.855,0,0,0,2.792,2.266h9.732a2.854,2.854,0,0,0,2.792-2.266l.87-4.136c.716-.17,1.433-.362,2.143-.577l2.843,3.172a2.845,2.845,0,0,0,3.244.722,42.884,42.884,0,0,0,8.98-5.242,2.855,2.855,0,0,0,.995-3.172l-1.31-3.988c.538-.507,1.064-1.034,1.572-1.572l3.985,1.31a2.862,2.862,0,0,0,3.169-.992,42.711,42.711,0,0,0,5.248-8.982,2.852,2.852,0,0,0-.722-3.244l-3.174-2.843c.217-.711.41-1.427.58-2.143l4.136-.87a2.855,2.855,0,0,0,2.266-2.793v-9.732A2.855,2.855,0,0,0,323.1,275.74Zm-3.442,10.209-3.693.778a2.854,2.854,0,0,0-2.221,2.285,31.041,31.041,0,0,1-1.341,4.975,2.852,2.852,0,0,0,.783,3.091l2.993,2.681a37.5,37.5,0,0,1-2.522,4.3l-3.771-1.24a2.865,2.865,0,0,0-3.071.867,31.164,31.164,0,0,1-3.651,3.654,2.86,2.86,0,0,0-.864,3.069l1.24,3.768a37.264,37.264,0,0,1-4.3,2.522l-2.684-2.993a2.868,2.868,0,0,0-3.094-.783,30.734,30.734,0,0,1-4.969,1.341,2.854,2.854,0,0,0-2.285,2.221l-.778,3.693h-5.1l-.778-3.693a2.854,2.854,0,0,0-2.285-2.221,31.045,31.045,0,0,1-4.975-1.341h0a2.874,2.874,0,0,0-3.091.783l-2.681,2.993a37.5,37.5,0,0,1-4.3-2.522l1.24-3.771a2.859,2.859,0,0,0-.867-3.071,31.171,31.171,0,0,1-3.654-3.651,2.867,2.867,0,0,0-3.069-.864l-3.768,1.24a37.256,37.256,0,0,1-2.522-4.3l2.993-2.684a2.856,2.856,0,0,0,.783-3.094,30.732,30.732,0,0,1-1.341-4.969,2.854,2.854,0,0,0-2.221-2.285l-3.693-.778v-5.1l3.693-.778a2.854,2.854,0,0,0,2.221-2.285,31.042,31.042,0,0,1,1.341-4.975,2.852,2.852,0,0,0-.783-3.091l-2.993-2.681a37.494,37.494,0,0,1,2.522-4.3l3.771,1.24a2.865,2.865,0,0,0,3.071-.867,31.171,31.171,0,0,1,3.651-3.654,2.86,2.86,0,0,0,.864-3.069l-1.24-3.768a37.259,37.259,0,0,1,4.3-2.522l2.684,2.993a2.863,2.863,0,0,0,3.094.783,30.733,30.733,0,0,1,4.969-1.341,2.854,2.854,0,0,0,2.285-2.221l.778-3.693h5.1l.778,3.693a2.854,2.854,0,0,0,2.285,2.221,31.03,31.03,0,0,1,4.975,1.341,2.857,2.857,0,0,0,3.091-.783l2.681-2.993a37.493,37.493,0,0,1,4.3,2.522L302.3,256.4a2.859,2.859,0,0,0,.867,3.071,31.171,31.171,0,0,1,3.654,3.651,2.879,2.879,0,0,0,3.069.864l3.768-1.24a37.255,37.255,0,0,1,2.522,4.3l-2.993,2.684a2.856,2.856,0,0,0-.783,3.094,30.734,30.734,0,0,1,1.341,4.969,2.854,2.854,0,0,0,2.221,2.285l3.693.778Z" transform="translate(-240.402 -240.916)"/>
        </g>
      </g>
      <g id="Group_258" data-name="Group 258" transform="translate(102.631 102.74)">
        <g id="Group_257" data-name="Group 257">
          <path id="Path_1348" data-name="Path 1348" class="cls-2" d="M313.176,288.005A25.685,25.685,0,1,0,338.86,313.69,25.685,25.685,0,0,0,313.176,288.005Zm0,45.661a19.977,19.977,0,1,1,19.977-19.977A20,20,0,0,1,313.176,333.667Z" transform="translate(-287.491 -288.005)"/>
        </g>
      </g>
      <g id="Group_260" data-name="Group 260" transform="translate(79.8 31.394)">
        <g id="Group_259" data-name="Group 259">
          <rect id="Rectangle_169" data-name="Rectangle 169" class="cls-2" width="22.831" height="5.708"/>
        </g>
      </g>
      <g id="Group_262" data-name="Group 262" transform="translate(14.162 77.055)">
        <g id="Group_261" data-name="Group 261">
          <path id="Path_1349" data-name="Path 1349" class="cls-2" d="M104.9,263.4a2.852,2.852,0,0,0-1.5-1.5h0l-19.977-8.562a2.852,2.852,0,0,0-3.977,2.622v5.708H45.2V216H39.491v48.515a2.852,2.852,0,0,0,2.851,2.854h37.1v5.708a2.852,2.852,0,0,0,2.85,2.854h0a2.812,2.812,0,0,0,1.123-.231l19.977-8.562A2.852,2.852,0,0,0,104.9,263.4Zm-19.747,5.355v-8.467l9.877,4.233Z" transform="translate(-39.491 -216.004)"/>
        </g>
      </g>
      <g id="Group_264" data-name="Group 264" transform="translate(114.882 118.034)">
        <g id="Group_263" data-name="Group 263">
          <path id="Path_1350" data-name="Path 1350" class="cls-2" d="M344.489,330.88,332.221,345.6l-6.352-6.351-4.035,4.035,8.562,8.562a2.845,2.845,0,0,0,2.018.836c.042,0,.086,0,.128,0a2.858,2.858,0,0,0,2.065-1.023l14.269-17.123Z" transform="translate(-321.834 -330.88)"/>
        </g>
      </g>
    </g>
  </g>
</svg>
