<svg xmlns="http://www.w3.org/2000/svg" viewBox="0 0 146 146">
  <defs>
    <style>
      .cls-1 {
        fill: #d2f4f0;
        opacity: 0.59;
      }

      .cls-2 {
        fill: #00c5dc;
      }

      .cls-3 {
        fill: none;
        stroke: #00c5dc;
        stroke-width: 3px;
      }
    </style>
  </defs>
  <g id="Group_309" data-name="Group 309" transform="translate(-495 -1269)">
    <circle id="Ellipse_166" data-name="Ellipse 166" class="cls-1" cx="73" cy="73" r="73" transform="translate(495 1269)"/>
    <g id="product" transform="translate(519.501 1288)">
      <path id="Path_1357" data-name="Path 1357" class="cls-2" d="M124.961,60h38.257a3.157,3.157,0,0,1,3.188,3.188v38.47a3.158,3.158,0,0,1-3.188,3.188H124.961a3.157,3.157,0,0,1-3.188-3.188V63.188A3.157,3.157,0,0,1,124.961,60Zm0,0" transform="translate(-96.676 -47.248)"/>
      <path id="Path_1358" data-name="Path 1358" class="cls-3" d="M.867,245.654l14.665,27.991A22.313,22.313,0,0,0,35.3,285.633H62.015L74.13,297.705a3.425,3.425,0,0,0,2.232.893,3.463,3.463,0,0,0,2.3-.893l15.941-15.9a3.273,3.273,0,0,0,0-4.526L75.724,258.406a15.868,15.868,0,0,0-11.286-4.654H31.281a2.765,2.765,0,0,0-2.423,4.081c1.4,2.742,3.06,5.93,3.634,6.95A3.18,3.18,0,0,0,35.3,266.5h21.68a3.188,3.188,0,0,1,0,6.376H35.3s-6.758-1.977-8.416-5.1L17.063,249.1A15.147,15.147,0,0,0,3.672,241a3.13,3.13,0,0,0-2.678,1.53,3.055,3.055,0,0,0-.127,3.124Zm0,0" transform="translate(0 -189.777)"/>
      <path id="Path_1363" data-name="Path 1363" class="cls-2" d="M236.337,6.376V0a9.551,9.551,0,0,0-9.564,9.564V22.317a3.188,3.188,0,0,0,6.376,0V9.564A3.157,3.157,0,0,1,236.337,6.376Zm0,0" transform="translate(-188.924)"/>
      <path id="Path_1364" data-name="Path 1364" class="cls-2" d="M226.773,6.376V0c5.775,0,10.435,4.272,10.435,9.564V22.317a3.492,3.492,0,0,1-6.957,0V9.564A3.31,3.31,0,0,0,226.773,6.376Zm0,0" transform="translate(-179.359)"/>
    </g>
  </g>
</svg>
