<svg xmlns="http://www.w3.org/2000/svg" viewBox="0 0 146 146">
  <defs>
    <style>
      .cls-1 {
        fill: #e4f8f6;
      }

      .cls-2 {
        fill: #00c5dc;
      }
    </style>
  </defs>
  <g id="Group_308" data-name="Group 308" transform="translate(-822 -1269)">
    <circle id="Ellipse_165" data-name="Ellipse 165" class="cls-1" cx="73" cy="73" r="73" transform="translate(822 1269)"/>
    <g id="shipped" transform="translate(842 1217.279)">
      <g id="Group_266" data-name="Group 266" transform="translate(0 94.062)">
        <g id="Group_265" data-name="Group 265" transform="translate(0 0)">
          <path id="Path_1351" data-name="Path 1351" class="cls-2" d="M7.393,120l2.735-10.02A1.553,1.553,0,0,1,8.819,108.5v-1.616c0-3.508,3.116-6.361,6.945-6.361H28.221V97.192a3.287,3.287,0,0,1,3.418-3.13h63.5a3.287,3.287,0,0,1,3.418,3.13v27.465a1.66,1.66,0,0,1-3.307,0V97.192a.106.106,0,0,0-.11-.1h-63.5a.106.106,0,0,0-.11.1v27.466a1.66,1.66,0,0,1-3.307,0v-1.717H8.706a5.384,5.384,0,0,0-5.139,3.433H8.709a1.589,1.589,0,0,1,1.654,1.515v3.231a4.984,4.984,0,0,1-5.181,4.746H3.307v6.664H7.631a10.462,10.462,0,0,1,9.9-6.462,10.462,10.462,0,0,1,9.9,6.462h.8V131.12a1.66,1.66,0,0,1,3.307,0v11.41H65.838a10.81,10.81,0,0,1,19.795,0h9.505a.106.106,0,0,0,.11-.1V139.1H88.083a1.521,1.521,0,1,1,0-3.029h15.875a1.521,1.521,0,1,1,0,3.029h-5.4v3.332a3.287,3.287,0,0,1-3.418,3.13H86.205c0,.034,0,.067,0,.1,0,5.289-4.7,9.593-10.473,9.593s-10.473-4.3-10.473-9.593c0-.034,0-.067,0-.1H28c0,.034,0,.067,0,.1,0,5.289-4.7,9.593-10.473,9.593s-10.473-4.3-10.473-9.593c0-.034,0-.067,0-.1h-5.4A1.589,1.589,0,0,1,0,144.045V127.889A8.245,8.245,0,0,1,7.393,120Zm20.828-16.449H15.764a3.5,3.5,0,0,0-3.638,3.332v.1h16.1Zm0,16.358v-9.9H13.528l-2.7,9.9Zm47.514,32.312c3.951,0,7.166-2.944,7.166-6.563s-3.215-6.563-7.166-6.563-7.166,2.944-7.166,6.563S71.784,152.224,75.736,152.224Zm-58.207,0c3.951,0,7.166-2.944,7.166-6.563s-3.215-6.563-7.166-6.563-7.166,2.944-7.166,6.563S13.577,152.224,17.528,152.224ZM3.307,132.837H5.181a1.8,1.8,0,0,0,1.874-1.717V129.4H3.307v3.433Z" transform="translate(0 -94.062)"/>
        </g>
      </g>
      <g id="Group_268" data-name="Group 268" transform="translate(72.318 142.53)">
        <g id="Group_267" data-name="Group 267" transform="translate(0)">
          <path id="Path_1352" data-name="Path 1352" class="cls-2" d="M131.684,350.6a3.142,3.142,0,1,1-3.418,3.13A3.287,3.287,0,0,1,131.684,350.6Z" transform="translate(-128.267 -350.597)"/>
        </g>
      </g>
      <g id="Group_270" data-name="Group 270" transform="translate(14.111 142.53)">
        <g id="Group_269" data-name="Group 269" transform="translate(0)">
          <path id="Path_1353" data-name="Path 1353" class="cls-2" d="M413.873,350.6a3.142,3.142,0,1,1-3.418,3.13A3.287,3.287,0,0,1,413.873,350.6Z" transform="translate(-410.455 -350.597)"/>
        </g>
      </g>
      <g id="Group_272" data-name="Group 272" transform="translate(35.277 136.068)">
        <g id="Group_271" data-name="Group 271" transform="translate(0 0)">
          <path id="Path_1354" data-name="Path 1354" class="cls-2" d="M206.881,316.393h24.694a1.521,1.521,0,1,1,0,3.029H206.881a1.521,1.521,0,1,1,0-3.029Z" transform="translate(-205.227 -316.393)"/>
        </g>
      </g>
      <g id="Group_274" data-name="Group 274" transform="translate(77.61 129.605)">
        <g id="Group_273" data-name="Group 273" transform="translate(0 0)">
          <path id="Path_1355" data-name="Path 1355" class="cls-2" d="M18.756,282.188H39.922a1.521,1.521,0,1,1,0,3.029H18.756a1.521,1.521,0,1,1,0-3.029Z" transform="translate(-17.102 -282.188)"/>
        </g>
      </g>
      <g id="Group_276" data-name="Group 276" transform="translate(49.278 108.602)">
        <g id="Group_275" data-name="Group 275" transform="translate(0 0)">
          <path id="Path_1356" data-name="Path 1356" class="cls-2" d="M169.637,171.466a1.42,1.42,0,0,0-2.062,0l-12.969,13.469-6.746-7.007a1.42,1.42,0,0,0-2.062,0,1.556,1.556,0,0,0,0,2.142l7.778,8.078a1.42,1.42,0,0,0,2.062,0l14-14.54A1.556,1.556,0,0,0,169.637,171.466Z" transform="translate(-145.37 -171.023)"/>
        </g>
      </g>
    </g>
  </g>
</svg>
