<svg xmlns="http://www.w3.org/2000/svg" viewBox="0 0 22.368 24.1">
  <defs>
    <style>
      .cls-1 {
        fill: #4c5e70;
      }
    </style>
  </defs>
  <g id="logout" transform="translate(-17.6)">
    <g id="Group_284" data-name="Group 284" transform="translate(17.6 0)">
      <g id="Group_283" data-name="Group 283" transform="translate(0)">
        <path id="Path_1366" data-name="Path 1366" class="cls-1" d="M119.8,134.026l-.01.01a.374.374,0,0,0-.039.054s0,.01-.01.015-.025.039-.034.059a.017.017,0,0,1,0,.01c-.01.02-.02.039-.03.064,0,0,0,0,0,.01s-.015.044-.025.069c0,0,0,.01,0,.01a.345.345,0,0,0-.015.069.044.044,0,0,1,0,.025c0,.02,0,.039-.01.059a.712.712,0,0,0,0,.167.247.247,0,0,0,.01.059.044.044,0,0,0,0,.025c0,.025.01.044.015.069,0,0,0,.01,0,.01a.387.387,0,0,0,.025.069s0,0,0,.01.02.044.03.064a.017.017,0,0,0,0,.01.367.367,0,0,0,.034.059s0,.01.01.015a.514.514,0,0,0,.039.054l.01.01a.7.7,0,0,0,.059.064l4.865,4.86a.845.845,0,0,0,1.2-1.2l-3.424-3.424H136.1a.844.844,0,1,0,0-1.687H122.488l3.4-3.4a.844.844,0,1,0-1.19-1.2l-4.836,4.836C119.836,133.986,119.816,134.006,119.8,134.026Z" transform="translate(-119.6 -122.509)"/>
        <path id="Path_1367" data-name="Path 1367" class="cls-1" d="M24.743,22.413h-6.3a.844.844,0,1,0,0,1.687h6.3a4.587,4.587,0,0,0,4.58-4.58V4.58A4.587,4.587,0,0,0,24.743,0H18.549a.844.844,0,1,0,0,1.687h6.193A2.9,2.9,0,0,1,27.636,4.58V19.52A2.9,2.9,0,0,1,24.743,22.413Z" transform="translate(-6.954 0)"/>
      </g>
    </g>
  </g>
</svg>
