<svg xmlns="http://www.w3.org/2000/svg" viewBox="0 0 25.744 25.728">
  <defs>
    <style>
      .cls-1 {
        fill: #e8ffff;
      }
    </style>
  </defs>
  <path id="Path_1044" data-name="Path 1044" class="cls-1" d="M25.733,20.492a1.244,1.244,0,0,1-.382,1.09l-3.625,3.6a2.04,2.04,0,0,1-.64.463,2.647,2.647,0,0,1-.777.245q-.027,0-.164.014t-.354.014a12.564,12.564,0,0,1-1.676-.177,12.73,12.73,0,0,1-2.834-.872,23.792,23.792,0,0,1-3.8-2.085,28.347,28.347,0,0,1-4.524-3.816,29.865,29.865,0,0,1-3.161-3.6,25.632,25.632,0,0,1-2.017-3.175A17.1,17.1,0,0,1,.631,9.55,14.026,14.026,0,0,1,.114,7.506,6.75,6.75,0,0,1,0,6.157q.027-.491.027-.545a2.649,2.649,0,0,1,.245-.777,2.042,2.042,0,0,1,.463-.64L4.365.57A1.2,1.2,0,0,1,5.237.188a1.017,1.017,0,0,1,.627.2,1.9,1.9,0,0,1,.463.5L9.244,6.429a1.326,1.326,0,0,1,.136.954,1.7,1.7,0,0,1-.463.872L7.581,9.591a.455.455,0,0,0-.1.177.673.673,0,0,0-.041.2,4.921,4.921,0,0,0,.491,1.308,12.009,12.009,0,0,0,1.008,1.594,17.7,17.7,0,0,0,1.935,2.167,18.053,18.053,0,0,0,2.18,1.949,12.591,12.591,0,0,0,1.594,1.022,4.238,4.238,0,0,0,.981.4l.341.068a.65.65,0,0,0,.177-.041.455.455,0,0,0,.177-.1l1.553-1.581a1.67,1.67,0,0,1,1.145-.436,1.424,1.424,0,0,1,.736.164h.027l5.26,3.107A1.371,1.371,0,0,1,25.733,20.492Z" transform="translate(0.001 -0.189)"/>
</svg>
