<svg xmlns="http://www.w3.org/2000/svg" viewBox="0 0 20 20">
  <defs>
    <style>
      .cls-1 {
        fill: #ccd3dd;
      }
    </style>
  </defs>
  <path id="Path_1368" data-name="Path 1368" class="cls-1" d="M18.116,1.884A6.442,6.442,0,0,0,7.431,8.426L.173,15.684A.585.585,0,0,0,0,16.1v3.315A.586.586,0,0,0,.587,20H3.9a.585.585,0,0,0,.414-.172L5.144,19a.586.586,0,0,0,.168-.482l-.1-.89,1.234-.116a.585.585,0,0,0,.528-.528l.116-1.234.89.1a.577.577,0,0,0,.457-.144.587.587,0,0,0,.2-.438V14.179H9.7a.585.585,0,0,0,.414-.172l1.5-1.483A6.345,6.345,0,0,0,18.116,11,6.452,6.452,0,0,0,18.116,1.884ZM16.458,6.028a1.758,1.758,0,1,1,0-2.486A1.759,1.759,0,0,1,16.458,6.028Z" transform="translate(-0.001 0.001)"/>
</svg>
