<svg xmlns="http://www.w3.org/2000/svg" viewBox="0 0 25 25">
  <defs>
    <style>
      .cls-1 {
        fill: #4c5e70;
      }
    </style>
  </defs>
  <path id="Path_1341" data-name="Path 1341" class="cls-1" d="M24.631,17.866c-2.94-2.941-3.383-4.417-3.383-9.116a8.748,8.748,0,1,0-17.5,0,14.782,14.782,0,0,1-.416,4.641A10.72,10.72,0,0,1,.368,17.866,1.25,1.25,0,0,0,1.252,20H8.188l-.063.625a4.374,4.374,0,1,0,8.748,0L16.811,20h6.937A1.25,1.25,0,0,0,24.631,17.866ZM12.5,23.75a3.125,3.125,0,0,1-3.125-3.125L9.439,20h6.123l.064.625A3.125,3.125,0,0,1,12.5,23.75Zm-11.248-5C5,15,5,12.5,5,8.75a7.5,7.5,0,1,1,15,0c0,3.75,0,6.25,3.749,10Z" transform="translate(0)"/>
</svg>
