<svg xmlns="http://www.w3.org/2000/svg" viewBox="0 0 29.627 23.688">
  <defs>
    <style>
      .cls-1 {
        fill: #fff;
        fill-rule: evenodd;
      }
    </style>
  </defs>
  <path id="Path_1045" data-name="Path 1045" class="cls-1" d="M90.727,76.807a13.058,13.058,0,0,1-3.48.951,6.045,6.045,0,0,0,2.691-3.318A12.394,12.394,0,0,1,86.063,75.9,6.122,6.122,0,0,0,81.609,74a6.046,6.046,0,0,0-6.078,5.962,6.493,6.493,0,0,0,.186,1.369A17.257,17.257,0,0,1,63.188,75.09a5.9,5.9,0,0,0,1.856,7.981,5.745,5.745,0,0,1-2.738-.742v.07a5.587,5.587,0,0,0,.418,2.158,6.063,6.063,0,0,0,4.454,3.689,6.208,6.208,0,0,1-1.6.232,4.623,4.623,0,0,1-1.137-.139A6.143,6.143,0,0,0,70.1,92.514a12.315,12.315,0,0,1-7.54,2.552q-.731,0-1.462-.07a17.452,17.452,0,0,0,9.3,2.691A16.875,16.875,0,0,0,87.27,84.3a16.159,16.159,0,0,0,.394-3.619v-.766a11.812,11.812,0,0,0,3.062-3.109Z" transform="translate(-61.1 -74)"/>
</svg>
