<svg xmlns="http://www.w3.org/2000/svg" viewBox="0 0 54.916 52.804">
  <defs>
    <style>
      .cls-1 {
        fill: #fff;
      }
    </style>
  </defs>
  <g id="upload_avatart" data-name="upload avatart" transform="translate(0 0)">
    <path id="Path_1403" data-name="Path 1403" class="cls-1" d="M53.991,320.7a3.052,3.052,0,0,0-2.244-.924H37.656a6.513,6.513,0,0,1-2.326,3.036A6.054,6.054,0,0,1,31.683,324H23.233a6.053,6.053,0,0,1-3.646-1.188,6.513,6.513,0,0,1-2.327-3.036H3.168a3.055,3.055,0,0,0-2.244.924A3.053,3.053,0,0,0,0,322.941V333.5a3.053,3.053,0,0,0,.924,2.244,3.055,3.055,0,0,0,2.244.924h48.58a3.154,3.154,0,0,0,3.168-3.167V322.941A3.052,3.052,0,0,0,53.991,320.7ZM41.617,331.818a2.073,2.073,0,1,1,.627-1.485A2.032,2.032,0,0,1,41.617,331.818Zm8.448,0a2.071,2.071,0,1,1,.627-1.485A2.029,2.029,0,0,1,50.065,331.818Z" transform="translate(0 -283.865)"/>
    <path id="Path_1404" data-name="Path 1404" class="cls-1" d="M93.215,28.146h8.449V42.931a2.142,2.142,0,0,0,2.112,2.112h8.449a2.141,2.141,0,0,0,2.112-2.112V28.146h8.449a1.972,1.972,0,0,0,1.947-1.32,1.877,1.877,0,0,0-.462-2.277L109.485,9.763a2.072,2.072,0,0,0-2.97,0L91.73,24.548a1.877,1.877,0,0,0-.462,2.277A1.973,1.973,0,0,0,93.215,28.146Z" transform="translate(-80.542 -9.136)"/>
  </g>
</svg>
